<?xml version="1.0" encoding="UTF-8"?>
<svg width="22px" height="22px" viewBox="0 0 22 22" version="1.1" xmlns="http://www.w3.org/2000/svg" xmlns:xlink="http://www.w3.org/1999/xlink" jetway-hooks="{}">
    <!-- Generator: Sketch 64 (93537) - https://sketch.com -->
    <title>Abt_ths_forum_icn@2x</title>
    <desc>Created with Sketch.</desc>
    <g jetway-hook-id="1DBAB6E0-35FA-40B3-AA9A-6C134603AF0B" id="Page-1" stroke="none" stroke-width="1" fill="none" fill-rule="evenodd">
        <g jetway-hook-id="D23A5065-06E5-444E-BCD5-9B3219AC0C12" id="footer-closeup" transform="translate(-24.000000, -14.000000)">
            <g jetway-hook-id="EC35F1E0-3E60-48CA-AD37-BF579DA639E8" id="Abt_ths_forum_icn" transform="translate(24.000000, 14.000000)">
                <path d="M10.9996,22.0002 C17.0746,22.0002 21.9996,17.0752 21.9996,11.0002 C21.9996,4.9252 17.0746,0.0002 10.9996,0.0002 C4.9256,0.0002 -0.0004,4.9252 -0.0004,11.0002 C-0.0004,17.0752 4.9256,22.0002 10.9996,22.0002" jetway-hook-id="E62417D3-4AFE-4E78-8823-68D2D6A6C1A3" id="Fill-1" fill="#1A73E8"></path>
                <g jetway-hook-id="5F99C239-3354-48CE-A5BE-BB40E5EB8830" id="Group-2" transform="translate(4.115500, 6.103200)">
                    <path d="M11.0936533,10.32096 L9.57178667,8.57029333 L8.27178667,8.57029333 C7.05672,8.57029333 6.07045333,7.58576 6.07045333,6.36982667 L6.07045333,4.91989333 C6.07045333,3.70396 7.05672,2.71942667 8.27178667,2.71942667 L12.22292,2.71942667 C13.4388533,2.71942667 14.4242533,3.70396 14.4242533,4.91989333 L14.4242533,6.27016 C14.4242533,7.48609333 13.4388533,8.47062667 12.22292,8.47062667 L12.2792533,9.85036 C12.3043867,10.4882267 11.5122533,10.8036933 11.0936533,10.32096 Z" jetway-hook-id="1A95CBAB-CBB4-493D-AEFB-05BDEF21B06A" id="Stroke-4" fill="#8AB4F8"></path>
                    <path d="M4.1626,9.88 L6.43153333,7.75666667 L8.15533333,7.75666667 C9.76646667,7.75666667 11.0725333,6.4506 11.0725333,4.84033333 L11.0725333,2.9172 C11.0725333,1.3052 9.76646667,-4.61852778e-15 8.15533333,-4.61852778e-15 L2.9172,-4.61852778e-15 C1.30606667,-4.61852778e-15 4.61852778e-15,1.3052 4.61852778e-15,2.9172 L4.61852778e-15,4.70686667 C4.61852778e-15,6.31886667 1.30606667,7.62406667 2.9172,7.62406667 L2.77333333,9.2014 C2.70486667,9.958 3.60706667,10.3991333 4.1626,9.88" jetway-hook-id="FDFC2176-3F75-4343-9E4E-628F0487F184" id="Fill-6" fill="#FFFFFF"></path>
                </g>
            </g>
        </g>
    </g>
</svg>