<?xml version="1.0" encoding="UTF-8"?>
<svg width="11px" height="20px" viewBox="0 0 11 20" version="1.1" xmlns="http://www.w3.org/2000/svg" xmlns:xlink="http://www.w3.org/1999/xlink">
    <!-- Generator: Sketch 48.1 (47250) - http://www.bohemiancoding.com/sketch -->
    <title>Group 130</title>
    <desc>Created with Sketch.</desc>
    <defs></defs>
    <g id="Single-idea" stroke="none" stroke-width="1" fill="none" fill-rule="evenodd" transform="translate(-85.000000, -2728.000000)">
        <g id="Group-149-Copy-2" transform="translate(0.000000, 2397.000000)">
            <g id="Group-139" transform="translate(80.000000, 331.000000)">
                <g id="Group-130">
                    <rect id="Rectangle-20" x="0" y="0" width="20" height="20"></rect>
                    <path d="M15.3117526,0.00416133496 L12.7416495,0 C9.8542268,0 7.98824742,1.93189975 7.98824742,4.92202699 L7.98824742,7.191411 L5.40412371,7.191411 C5.18082474,7.191411 5,7.37409361 5,7.5994299 L5,10.8875087 C5,11.112845 5.18103093,11.2953195 5.40412371,11.2953195 L7.98824742,11.2953195 L7.98824742,19.5921892 C7.98824742,19.8175255 8.16907216,20 8.39237113,20 L11.7639175,20 C11.9872165,20 12.1680412,19.8173174 12.1680412,19.5921892 L12.1680412,11.2953195 L15.1894845,11.2953195 C15.4127835,11.2953195 15.5936082,11.112845 15.5936082,10.8875087 L15.5948454,7.5994299 C15.5948454,7.49123519 15.5521649,7.38761795 15.4764948,7.31104938 C15.4008247,7.23448082 15.297732,7.191411 15.1905155,7.191411 L12.1680412,7.191411 L12.1680412,5.26762585 C12.1680412,4.34297723 12.3863918,3.87357864 13.58,3.87357864 L15.3113402,3.87295444 C15.534433,3.87295444 15.7152577,3.69027184 15.7152577,3.46514362 L15.7152577,0.411972161 C15.7152577,0.187052006 15.5346392,0.00457746845 15.3117526,0.00416133496 L15.3117526,0.00416133496 Z" id="shape" fill="#999999"></path>
                </g>
            </g>
        </g>
    </g>
</svg>