<?xml version="1.0" encoding="UTF-8"?>
<svg width="20px" height="23px" viewBox="0 0 20 23" version="1.1" xmlns="http://www.w3.org/2000/svg" xmlns:xlink="http://www.w3.org/1999/xlink">
    <!-- Generator: Sketch 48.1 (47250) - http://www.bohemiancoding.com/sketch -->
    <title>ic/footer/help desk/24px</title>
    <desc>Created with Sketch.</desc>
    <defs>
        <rect id="path-1" x="0" y="0" width="24" height="24"></rect>
        <polygon id="path-3" points="4.0005162e-05 0.0134244131 9.8161866 0.0134244131 9.8161866 22.2676056 4.0005162e-05 22.2676056"></polygon>
        <polygon id="path-5" points="0.0548550781 0.0134244131 9.87084166 0.0134244131 9.87084166 22.2676056 0.0548550781 22.2676056"></polygon>
    </defs>
    <g id="Page-1" stroke="none" stroke-width="1" fill="none" fill-rule="evenodd">
        <g id="ic/footer/help-desk/24px" transform="translate(-2.000000, 0.000000)">
            <mask id="mask-2" fill="white">
                <use xlink:href="#path-1"></use>
            </mask>
            <g id="Mask"></g>
            <g id="Page-1" mask="url(#mask-2)">
                <g transform="translate(2.000000, 0.666667)">
                    <g id="Group-3" stroke-width="1" fill="none" transform="translate(0.000000, 0.066404)">
                        <mask id="mask-4" fill="white">
                            <use xlink:href="#path-3"></use>
                        </mask>
                        <g id="Clip-2"></g>
                        <path d="M1.93357982,0.0134244131 C1.05346625,0.0134244131 0.333373338,0.731734272 0.333373338,1.60966854 L0.333373338,18.0007014 C0.333373338,18.8786357 1.05346625,19.5969455 1.93357982,19.5969455 L7.57262744,19.5969455 L10.1495199,22.2676216 L10.1495199,0.0134244131 L1.93357982,0.0134244131 Z" id="Fill-1" fill="#6199F6" mask="url(#mask-4)"></path>
                    </g>
                    <g id="Group-6" stroke-width="1" fill="none" transform="translate(9.761260, 0.066404)">
                        <mask id="mask-6" fill="white">
                            <use xlink:href="#path-5"></use>
                        </mask>
                        <g id="Clip-5"></g>
                        <path d="M7.93730185,0.0134244131 L-0.278478255,0.0134244131 L-0.278478255,22.2676216 L2.29825423,19.5969455 L7.93730185,19.5969455 C8.81741541,19.5969455 9.53750832,18.8786357 9.53750832,18.0007014 L9.53750832,1.60966854 C9.53750832,0.731734272 8.81741541,0.0134244131 7.93730185,0.0134244131" id="Fill-4" fill="#1A73E8" mask="url(#mask-6)"></path>
                    </g>
                    <path d="M9.8308365,15.2588808 C9.47663079,15.2588808 9.17643206,15.1337352 8.93072035,14.8835239 C8.68476862,14.6333127 8.56179275,14.3315427 8.56179275,13.9782939 C8.56179275,13.6250451 8.68476862,13.3258291 8.93072035,13.0803268 C9.17643206,12.8352235 9.47663079,12.7123925 9.8308365,12.7123925 C10.1849622,12.7123925 10.4874812,12.8352235 10.7383136,13.0803268 C10.989146,13.3258291 11.1146021,13.6250451 11.1146021,13.9782939 C11.1146021,14.3315427 10.989146,14.6333127 10.7383136,14.8835239 C10.4874812,15.1337352 10.1849622,15.2588808 9.8308365,15.2588808 Z M8.88639463,11.6378808 L8.88639463,11.1521437 C8.88639463,10.9166178 8.91087779,10.6984113 8.96016415,10.4971249 C9.00929049,10.2961577 9.08562034,10.1022939 9.18891367,9.91569296 C9.29220699,9.72941127 9.42982475,9.54289014 9.60208698,9.35636901 C9.77410918,9.17008732 9.98805678,8.96880094 10.2440098,8.75290892 C10.5094841,8.5173831 10.7161507,8.3016507 10.8636898,8.10523286 C11.0113088,7.90905446 11.0850783,7.66873991 11.0850783,7.38396995 C11.0850783,7.08962254 10.9744241,6.82967418 10.7529555,6.60388545 C10.5317269,6.37825634 10.2292079,6.26532207 9.84555839,6.26532207 C9.63897174,6.26532207 9.45206762,6.29980094 9.28484604,6.36835962 C9.11746445,6.43707793 8.9698454,6.53021878 8.84214892,6.6480216 C8.7141324,6.7657446 8.60835876,6.89823286 8.52490799,7.04540657 C8.4412972,7.19266009 8.37960924,7.34486197 8.34040418,7.50177277 L6.64346522,6.79519531 C6.72211537,6.5205615 6.84749155,6.24576808 7.01975377,5.97089484 C7.19177597,5.69626103 7.40836392,5.44836432 7.66903755,5.22760376 C7.92955117,5.00676338 8.23711085,4.82782441 8.59131656,4.69030798 C8.94544225,4.55303099 9.34381365,4.48423286 9.78651078,4.48423286 C10.2587317,4.48423286 10.6914275,4.55558498 11.0850783,4.6976507 C11.4784091,4.84003568 11.8154926,5.03621408 12.0958488,5.28650516 C12.3761249,5.53671643 12.5949532,5.83361784 12.7524935,6.17696995 C12.9097138,6.5205615 12.9886039,6.88857559 12.9886039,7.28093239 C12.9886039,7.56570235 12.9539595,7.82070235 12.8853106,8.04633146 C12.8162617,8.2722 12.7228897,8.48314366 12.6049544,8.67932207 C12.4868592,8.87566009 12.3490014,9.05970704 12.1917811,9.23130329 C12.0342408,9.40305915 11.8670992,9.57234085 11.6900364,9.73914836 C11.5227348,9.89621878 11.3824767,10.0385239 11.2695021,10.165984 C11.1562875,10.2936038 11.0677161,10.4186695 11.0038679,10.541261 C10.9397796,10.664092 10.8932136,10.7941061 10.8636898,10.9313033 C10.834246,11.0688197 10.8194441,11.2257305 10.8194441,11.4023549 L10.8194441,11.6378808 L8.88639463,11.6378808 Z" id="Fill-7" fill="#FAFAFA"></path>
                </g>
            </g>
        </g>
    </g>
</svg>