<?xml version="1.0" encoding="UTF-8"?>
<svg width="14px" height="18px" viewBox="0 0 14 18" version="1.1" xmlns="http://www.w3.org/2000/svg" xmlns:xlink="http://www.w3.org/1999/xlink">
    <!-- Generator: Sketch 49 (51002) - http://www.bohemiancoding.com/sketch -->
    <title>Popular Tags - Travel</title>
    <desc>Created with Sketch.</desc>
    <defs>
        <polygon id="path-1" points="0.058608 0.0557013575 6.54746897 0.0557013575 6.54746897 12.8407692 0.058608 12.8407692"></polygon>
        <polygon id="path-3" points="0.000183724138 0.0556561086 6.48886097 0.0556561086 6.48886097 12.841086 0.000183724138 12.841086"></polygon>
        <polygon id="path-5" points="0.192405103 0.0556561086 4.51818993 0.0556561086 4.51818993 12.841086 0.192405103 12.841086"></polygon>
        <polygon id="path-7" points="0.0582864828 0.0987782805 1.69940234 0.0987782805 1.69940234 2.71493213 0.0582864828 2.71493213"></polygon>
    </defs>
    <g id="Page-1" stroke="none" stroke-width="1" fill="none" fill-rule="evenodd">
        <g id="Popular-Tags---Travel" transform="translate(-2.000000, -0.285714)">
            <g id="Page-1" transform="translate(2.160000, 0.352941)">
                <g id="Group-3" transform="translate(6.430345, 0.043846)">
                    <mask id="mask-2" fill="white">
                        <use xlink:href="#path-1"></use>
                    </mask>
                    <g id="Clip-2"></g>
                    <path d="M0.058608,0.0557013575 C1.25327421,0.0557013575 2.22150041,2.91769231 2.22150041,6.44846154 C2.22150041,9.97877828 1.25327421,12.8407692 0.058608,12.8407692 C3.64260662,12.8407692 6.54774455,9.97877828 6.54774455,6.44846154 C6.54774455,2.91769231 3.64260662,0.0557013575 0.058608,0.0557013575" id="Fill-1" fill="#9FC1F9" mask="url(#mask-2)"></path>
                </g>
                <g id="Group-6" transform="translate(0.000000, 0.043846)">
                    <mask id="mask-4" fill="white">
                        <use xlink:href="#path-3"></use>
                    </mask>
                    <g id="Clip-5"></g>
                    <path d="M4.32596855,6.44832579 C4.32596855,2.91755656 5.29419476,0.0555656109 6.48886097,0.0555656109 C2.90532166,0.0555656109 0.000183724138,2.91755656 0.000183724138,6.44832579 C0.000183724138,9.97909502 2.90532166,12.841086 6.48886097,12.841086 C5.29419476,12.841086 4.32596855,9.97909502 4.32596855,6.44832579" id="Fill-4" fill="#4285F4" mask="url(#mask-4)"></path>
                </g>
                <g id="Group-9" transform="translate(4.133793, 0.043846)">
                    <mask id="mask-6" fill="white">
                        <use xlink:href="#path-5"></use>
                    </mask>
                    <g id="Clip-8"></g>
                    <path d="M4.51818993,6.44832579 C4.51818993,2.91755656 3.54996372,0.0555656109 2.35529752,0.0555656109 C1.16063131,0.0555656109 0.192405103,2.91755656 0.192405103,6.44832579 C0.192405103,9.97909502 1.16063131,12.841086 2.35529752,12.841086 C3.54996372,12.841086 4.51818993,9.97909502 4.51818993,6.44832579" id="Fill-7" fill="#80ADF7" mask="url(#mask-6)"></path>
                </g>
                <path d="M6.48840166,17.2384163 L5.42326097,17.2384163 C5.11965683,17.2384163 4.87392579,16.9958824 4.87392579,16.6972398 L4.87392579,14.6221267 L7.03773683,14.6221267 L7.03773683,16.6972398 C7.03773683,16.9958824 6.79200579,17.2384163 6.48840166,17.2384163" id="Fill-10" fill="#FABB05"></path>
                <g id="Group-14" transform="translate(6.430345, 14.523484)">
                    <mask id="mask-8" fill="white">
                        <use xlink:href="#path-7"></use>
                    </mask>
                    <g id="Clip-13"></g>
                    <path d="M0.607621655,0.0987782805 L0.607621655,2.17343891 C0.607621655,2.47253394 0.36143131,2.71506787 0.0582864828,2.71506787 L1.14960786,2.71506787 C1.453212,2.71506787 1.69940234,2.47253394 1.69940234,2.17343891 L1.69940234,0.0987782805 L0.607621655,0.0987782805 Z" id="Fill-12" fill="#FCD35C" mask="url(#mask-8)"></path>
                </g>
            </g>
            <rect id="Rectangle-8" x="0" y="0" width="18.36" height="18"></rect>
        </g>
    </g>
</svg>