<?xml version="1.0" encoding="UTF-8"?>
<svg width="20px" height="17px" viewBox="0 0 20 17" version="1.1" xmlns="http://www.w3.org/2000/svg" xmlns:xlink="http://www.w3.org/1999/xlink">
    <!-- Generator: Sketch 48.1 (47250) - http://www.bohemiancoding.com/sketch -->
    <title>Group 135</title>
    <desc>Created with Sketch.</desc>
    <defs></defs>
    <g id="Single-idea" stroke="none" stroke-width="1" fill="none" fill-rule="evenodd" transform="translate(-120.000000, -2730.000000)">
        <g id="Group-149-Copy-2" transform="translate(0.000000, 2397.000000)">
            <g id="Group-139" transform="translate(80.000000, 331.000000)">
                <g id="Group-135" transform="translate(40.000000, 0.000000)">
                    <path d="M20,3.92401968 C19.2640639,4.25034717 18.4733624,4.47093267 17.643364,4.57011217 C18.4904717,4.06230066 19.1410954,3.25820067 19.4475011,2.29999941 C18.6545729,2.77027193 17.7765278,3.11171658 16.8418421,3.29570059 C16.0934061,2.49824121 15.0269628,2 13.8467698,2 C11.5807196,2 9.74357472,3.83706672 9.74357472,6.10307792 C9.74357472,6.42467886 9.77986371,6.73784231 9.84982451,7.03819328 C6.43967492,6.86702174 3.41620427,5.23350931 1.39245822,2.7509751 C1.03925578,3.35698954 0.836873365,4.06183191 0.836873365,4.81382263 C0.836873365,6.2374136 1.56124695,7.49334865 2.66226043,8.22916752 C1.98964455,8.20783944 1.35695047,8.02326949 0.803787493,7.71592634 C0.803396868,7.73303568 0.803396868,7.75022314 0.803396868,7.7675278 C0.803396868,9.75557079 2.21780817,11.4139269 4.09483575,11.7909574 C3.75057861,11.8846682 3.38804026,11.9349806 3.01382224,11.9349806 C2.74940869,11.9349806 2.49237794,11.9091994 2.2417925,11.8612307 C2.76397898,13.4913057 4.27928852,14.6777877 6.07483189,14.7107955 C4.67053775,15.8114183 2.9012834,16.4673155 0.978826213,16.4673155 C0.647615923,16.4673155 0.321014998,16.4479405 0,16.4098547 C1.81585583,17.5741883 3.97268755,18.2534839 6.28987053,18.2534839 C13.8371605,18.2534839 17.964379,12.0010742 17.964379,6.57881918 C17.964379,6.4009289 17.9603165,6.22397613 17.9524649,6.04796084 C18.7542602,5.46948541 19.4499229,4.74683057 20,3.92401968 L20,3.92401968 Z" id="shape" fill="#999999"></path>
                    <rect id="Rectangle-20" x="0" y="0" width="20" height="20"></rect>
                </g>
            </g>
        </g>
    </g>
</svg>